<svg width="47" height="42" viewBox="0 0 47 42" fill="none" xmlns="http://www.w3.org/2000/svg">
<path d="M42.011 22.5254L23.3843 41L4.75762 22.5254C3.52902 21.3281 2.56126 19.889 1.9153 18.2988C1.26934 16.7085 0.959165 15.0016 1.00431 13.2854C1.04945 11.5692 1.44893 9.88096 2.17759 8.32699C2.90625 6.77301 3.94831 5.38696 5.23815 4.25611C6.52799 3.12526 8.03767 2.27411 9.67212 1.75626C11.3066 1.23842 13.0304 1.06509 14.735 1.24719C16.4396 1.4293 18.0881 1.96289 19.5767 2.81437C21.0653 3.66584 22.3617 4.81676 23.3843 6.19465C24.4114 4.82677 25.7093 3.6859 27.1968 2.84346C28.6844 2.00102 30.3296 1.47514 32.0294 1.29872C33.7293 1.12231 35.4472 1.29917 37.0756 1.81822C38.7041 2.33728 40.208 3.18736 41.4933 4.31526C42.7787 5.44316 43.8177 6.82461 44.5453 8.37314C45.273 9.92167 45.6737 11.6039 45.7223 13.3147C45.7708 15.0254 45.4663 16.7278 44.8277 18.3152C44.1891 19.9027 43.2302 21.341 42.011 22.5403" stroke="black" stroke-width="0.980861" stroke-linecap="round" stroke-linejoin="round"/>
</svg>
