<svg width="144" height="157" viewBox="0 0 144 157" fill="none" xmlns="http://www.w3.org/2000/svg">
<path fill-rule="evenodd" clip-rule="evenodd" d="M82.0545 13.5335C90.8046 19.561 92.8173 32.132 101.165 38.705C106.786 43.1306 116.461 39.6805 121.593 44.6645C126.76 49.683 127.408 57.8727 128.267 65.0247C129.029 71.3707 124.12 77.9303 126.309 83.9352C129.436 92.5117 144.148 96.3167 142.978 105.37C141.916 113.586 128.578 113.229 121.89 118.118C116.902 121.765 112.025 125.605 108.426 130.628C102.785 138.502 104.311 154.392 94.7573 155.99C85.0801 157.609 82.795 136.701 72.9844 136.556C60.388 136.371 53.0645 154.753 40.4743 155.19C30.2942 155.543 21.8766 146.209 15.1457 138.563C8.30539 130.793 3.21486 121.162 1.52502 110.949C-0.136405 100.907 -2.12001 87.5693 5.61345 80.9527C16.7485 71.4257 37.8709 81.6326 48.0786 71.118C54.6533 64.3458 41.5743 53.2135 41.7058 43.7756C41.9009 29.7802 37.8309 11.1869 49.0309 2.79226C58.3729 -4.20982 72.4399 6.91056 82.0545 13.5335Z" fill="#3A506B"/>
</svg>
